<mxfile host="Electron" agent="Mozilla/5.0 (Windows NT 10.0; Win64; x64) AppleWebKit/537.36 (KHTML, like Gecko) draw.io/28.1.2 Chrome/138.0.7204.243 Electron/37.4.0 Safari/537.36" version="28.1.2">
  <diagram name="Page-1" id="Xj-_uKZAfhPn26T_sf-_">
    <mxGraphModel dx="1562" dy="1049" grid="1" gridSize="10" guides="1" tooltips="1" connect="1" arrows="1" fold="1" page="1" pageScale="1" pageWidth="850" pageHeight="1100" background="none" math="0" shadow="0">
      <root>
        <mxCell id="0" />
        <mxCell id="1" parent="0" />
        <mxCell id="4luCwFVKugMRVaSGN3f6-64" style="edgeStyle=orthogonalEdgeStyle;rounded=0;orthogonalLoop=1;jettySize=auto;html=1;entryX=0.5;entryY=0;entryDx=0;entryDy=0;exitX=0.56;exitY=1.037;exitDx=0;exitDy=0;exitPerimeter=0;" parent="1" source="KPBnRNqBMspxrsRg6wUU-1" target="4luCwFVKugMRVaSGN3f6-24" edge="1">
          <mxGeometry relative="1" as="geometry">
            <mxPoint x="200" y="341" as="sourcePoint" />
          </mxGeometry>
        </mxCell>
        <mxCell id="4luCwFVKugMRVaSGN3f6-3" value="" style="group" parent="1" vertex="1" connectable="0">
          <mxGeometry x="365" y="30" width="110" height="70" as="geometry" />
        </mxCell>
        <mxCell id="4luCwFVKugMRVaSGN3f6-1" value="start" style="ellipse;whiteSpace=wrap;html=1;fillColor=#0050ef;fontColor=#ffffff;strokeColor=#001DBC;" parent="4luCwFVKugMRVaSGN3f6-3" vertex="1">
          <mxGeometry width="110.00000000000001" height="70" as="geometry" />
        </mxCell>
        <mxCell id="4luCwFVKugMRVaSGN3f6-12" value="" style="group" parent="1" vertex="1" connectable="0">
          <mxGeometry x="380" y="260" width="80" height="80" as="geometry" />
        </mxCell>
        <mxCell id="4luCwFVKugMRVaSGN3f6-5" value="" style="rhombus;whiteSpace=wrap;html=1;" parent="4luCwFVKugMRVaSGN3f6-12" vertex="1">
          <mxGeometry width="80" height="80" as="geometry" />
        </mxCell>
        <mxCell id="4luCwFVKugMRVaSGN3f6-7" value="dashboard" style="text;html=1;align=center;verticalAlign=middle;whiteSpace=wrap;rounded=0;" parent="4luCwFVKugMRVaSGN3f6-12" vertex="1">
          <mxGeometry x="9.5" y="25" width="60" height="30" as="geometry" />
        </mxCell>
        <mxCell id="4luCwFVKugMRVaSGN3f6-21" style="edgeStyle=orthogonalEdgeStyle;rounded=0;orthogonalLoop=1;jettySize=auto;html=1;entryX=0.5;entryY=0;entryDx=0;entryDy=0;" parent="1" source="4luCwFVKugMRVaSGN3f6-14" target="4luCwFVKugMRVaSGN3f6-5" edge="1">
          <mxGeometry relative="1" as="geometry" />
        </mxCell>
        <mxCell id="4luCwFVKugMRVaSGN3f6-14" value="" style="shape=parallelogram;perimeter=parallelogramPerimeter;whiteSpace=wrap;html=1;fixedSize=1;" parent="1" vertex="1">
          <mxGeometry x="360" y="150" width="120" height="60" as="geometry" />
        </mxCell>
        <mxCell id="4luCwFVKugMRVaSGN3f6-15" value="form login" style="text;html=1;align=center;verticalAlign=middle;whiteSpace=wrap;rounded=0;" parent="1" vertex="1">
          <mxGeometry x="390" y="165" width="60" height="30" as="geometry" />
        </mxCell>
        <mxCell id="4luCwFVKugMRVaSGN3f6-20" style="edgeStyle=orthogonalEdgeStyle;rounded=0;orthogonalLoop=1;jettySize=auto;html=1;entryX=0.5;entryY=0;entryDx=0;entryDy=0;" parent="1" source="4luCwFVKugMRVaSGN3f6-1" target="4luCwFVKugMRVaSGN3f6-14" edge="1">
          <mxGeometry relative="1" as="geometry" />
        </mxCell>
        <mxCell id="4luCwFVKugMRVaSGN3f6-23" style="edgeStyle=orthogonalEdgeStyle;rounded=0;orthogonalLoop=1;jettySize=auto;html=1;entryX=0;entryY=0.5;entryDx=0;entryDy=0;" parent="1" target="4luCwFVKugMRVaSGN3f6-67" edge="1">
          <mxGeometry relative="1" as="geometry">
            <mxPoint x="460" y="300" as="sourcePoint" />
            <mxPoint x="590" y="301" as="targetPoint" />
          </mxGeometry>
        </mxCell>
        <mxCell id="4luCwFVKugMRVaSGN3f6-26" value="" style="group" parent="1" vertex="1" connectable="0">
          <mxGeometry x="150" y="380" width="100" height="40" as="geometry" />
        </mxCell>
        <mxCell id="4luCwFVKugMRVaSGN3f6-24" value="" style="rounded=1;whiteSpace=wrap;html=1;" parent="4luCwFVKugMRVaSGN3f6-26" vertex="1">
          <mxGeometry width="100" height="40" as="geometry" />
        </mxCell>
        <mxCell id="4luCwFVKugMRVaSGN3f6-25" value="mengelolah&lt;div&gt;data&lt;/div&gt;" style="text;html=1;align=center;verticalAlign=middle;whiteSpace=wrap;rounded=0;" parent="4luCwFVKugMRVaSGN3f6-26" vertex="1">
          <mxGeometry x="20" y="5" width="60" height="30" as="geometry" />
        </mxCell>
        <mxCell id="4luCwFVKugMRVaSGN3f6-36" value="" style="group" parent="1" vertex="1" connectable="0">
          <mxGeometry x="160" y="450" width="80" height="80" as="geometry" />
        </mxCell>
        <mxCell id="4luCwFVKugMRVaSGN3f6-31" value="" style="rhombus;whiteSpace=wrap;html=1;" parent="4luCwFVKugMRVaSGN3f6-36" vertex="1">
          <mxGeometry width="80" height="80" as="geometry" />
        </mxCell>
        <mxCell id="4luCwFVKugMRVaSGN3f6-32" value="olah data" style="text;html=1;align=center;verticalAlign=middle;whiteSpace=wrap;rounded=0;" parent="4luCwFVKugMRVaSGN3f6-36" vertex="1">
          <mxGeometry x="10" y="25" width="60" height="30" as="geometry" />
        </mxCell>
        <mxCell id="4luCwFVKugMRVaSGN3f6-37" value="" style="group" parent="1" vertex="1" connectable="0">
          <mxGeometry x="30" y="535" width="75" height="30" as="geometry" />
        </mxCell>
        <mxCell id="4luCwFVKugMRVaSGN3f6-33" value="" style="rounded=1;whiteSpace=wrap;html=1;" parent="4luCwFVKugMRVaSGN3f6-37" vertex="1">
          <mxGeometry x="2.5" width="70" height="30" as="geometry" />
        </mxCell>
        <mxCell id="4luCwFVKugMRVaSGN3f6-34" value="&lt;font style=&quot;font-size: 10px;&quot;&gt;data pembeli&lt;/font&gt;" style="text;html=1;align=center;verticalAlign=middle;whiteSpace=wrap;rounded=0;" parent="4luCwFVKugMRVaSGN3f6-37" vertex="1">
          <mxGeometry width="75" height="30" as="geometry" />
        </mxCell>
        <mxCell id="4luCwFVKugMRVaSGN3f6-39" value="" style="group" parent="1" vertex="1" connectable="0">
          <mxGeometry x="162.5" y="580" width="75" height="30" as="geometry" />
        </mxCell>
        <mxCell id="4luCwFVKugMRVaSGN3f6-40" value="" style="rounded=1;whiteSpace=wrap;html=1;" parent="4luCwFVKugMRVaSGN3f6-39" vertex="1">
          <mxGeometry x="2.5" width="70" height="30" as="geometry" />
        </mxCell>
        <mxCell id="4luCwFVKugMRVaSGN3f6-41" value="&lt;font style=&quot;font-size: 10px;&quot;&gt;data produk&lt;/font&gt;" style="text;html=1;align=center;verticalAlign=middle;whiteSpace=wrap;rounded=0;" parent="4luCwFVKugMRVaSGN3f6-39" vertex="1">
          <mxGeometry width="75" height="30" as="geometry" />
        </mxCell>
        <mxCell id="4luCwFVKugMRVaSGN3f6-42" value="" style="group" parent="1" vertex="1" connectable="0">
          <mxGeometry x="285" y="535" width="75" height="30" as="geometry" />
        </mxCell>
        <mxCell id="4luCwFVKugMRVaSGN3f6-43" value="" style="rounded=1;whiteSpace=wrap;html=1;" parent="4luCwFVKugMRVaSGN3f6-42" vertex="1">
          <mxGeometry x="2.5" width="70" height="30" as="geometry" />
        </mxCell>
        <mxCell id="4luCwFVKugMRVaSGN3f6-44" value="&lt;font style=&quot;font-size: 10px;&quot;&gt;data transaksi&lt;/font&gt;" style="text;html=1;align=center;verticalAlign=middle;whiteSpace=wrap;rounded=0;" parent="4luCwFVKugMRVaSGN3f6-42" vertex="1">
          <mxGeometry width="75" height="30" as="geometry" />
        </mxCell>
        <mxCell id="4luCwFVKugMRVaSGN3f6-45" style="edgeStyle=orthogonalEdgeStyle;rounded=0;orthogonalLoop=1;jettySize=auto;html=1;entryX=0.5;entryY=0;entryDx=0;entryDy=0;" parent="1" target="4luCwFVKugMRVaSGN3f6-31" edge="1">
          <mxGeometry relative="1" as="geometry">
            <mxPoint x="200" y="420" as="sourcePoint" />
          </mxGeometry>
        </mxCell>
        <mxCell id="4luCwFVKugMRVaSGN3f6-46" style="edgeStyle=orthogonalEdgeStyle;rounded=0;orthogonalLoop=1;jettySize=auto;html=1;entryX=0.5;entryY=0;entryDx=0;entryDy=0;" parent="1" source="4luCwFVKugMRVaSGN3f6-31" target="4luCwFVKugMRVaSGN3f6-34" edge="1">
          <mxGeometry relative="1" as="geometry" />
        </mxCell>
        <mxCell id="4luCwFVKugMRVaSGN3f6-47" style="edgeStyle=orthogonalEdgeStyle;rounded=0;orthogonalLoop=1;jettySize=auto;html=1;entryX=0.5;entryY=0;entryDx=0;entryDy=0;" parent="1" target="4luCwFVKugMRVaSGN3f6-44" edge="1">
          <mxGeometry relative="1" as="geometry">
            <mxPoint x="240" y="490" as="sourcePoint" />
          </mxGeometry>
        </mxCell>
        <mxCell id="4luCwFVKugMRVaSGN3f6-48" style="edgeStyle=orthogonalEdgeStyle;rounded=0;orthogonalLoop=1;jettySize=auto;html=1;entryX=0.5;entryY=0;entryDx=0;entryDy=0;" parent="1" source="4luCwFVKugMRVaSGN3f6-31" target="4luCwFVKugMRVaSGN3f6-41" edge="1">
          <mxGeometry relative="1" as="geometry" />
        </mxCell>
        <mxCell id="4luCwFVKugMRVaSGN3f6-55" value="" style="group" parent="1" vertex="1" connectable="0">
          <mxGeometry x="380" y="1040" width="80" height="50" as="geometry" />
        </mxCell>
        <mxCell id="4luCwFVKugMRVaSGN3f6-50" value="" style="ellipse;whiteSpace=wrap;html=1;" parent="4luCwFVKugMRVaSGN3f6-55" vertex="1">
          <mxGeometry width="80" height="50" as="geometry" />
        </mxCell>
        <mxCell id="4luCwFVKugMRVaSGN3f6-51" value="stop" style="text;html=1;align=center;verticalAlign=middle;whiteSpace=wrap;rounded=0;" parent="4luCwFVKugMRVaSGN3f6-55" vertex="1">
          <mxGeometry x="20.66666666666667" y="15.625" width="40" height="18.75" as="geometry" />
        </mxCell>
        <mxCell id="4luCwFVKugMRVaSGN3f6-58" style="edgeStyle=orthogonalEdgeStyle;rounded=0;orthogonalLoop=1;jettySize=auto;html=1;entryX=0.496;entryY=-0.031;entryDx=0;entryDy=0;entryPerimeter=0;" parent="1" target="4luCwFVKugMRVaSGN3f6-50" edge="1">
          <mxGeometry relative="1" as="geometry">
            <mxPoint x="420" y="980" as="sourcePoint" />
          </mxGeometry>
        </mxCell>
        <mxCell id="4luCwFVKugMRVaSGN3f6-61" value="" style="group" parent="1" vertex="1" connectable="0">
          <mxGeometry x="355.5" y="880" width="120" height="80" as="geometry" />
        </mxCell>
        <mxCell id="4luCwFVKugMRVaSGN3f6-59" value="" style="shape=document;whiteSpace=wrap;html=1;boundedLbl=1;" parent="4luCwFVKugMRVaSGN3f6-61" vertex="1">
          <mxGeometry width="120" height="80" as="geometry" />
        </mxCell>
        <mxCell id="4luCwFVKugMRVaSGN3f6-60" value="&lt;font style=&quot;font-size: 15px;&quot;&gt;report ke exel&lt;/font&gt;" style="text;html=1;align=center;verticalAlign=middle;whiteSpace=wrap;rounded=0;" parent="4luCwFVKugMRVaSGN3f6-61" vertex="1">
          <mxGeometry x="5" y="20" width="110" height="30" as="geometry" />
        </mxCell>
        <mxCell id="4luCwFVKugMRVaSGN3f6-63" style="edgeStyle=orthogonalEdgeStyle;rounded=0;orthogonalLoop=1;jettySize=auto;html=1;" parent="1" target="KPBnRNqBMspxrsRg6wUU-1" edge="1">
          <mxGeometry relative="1" as="geometry">
            <mxPoint x="380" y="300" as="sourcePoint" />
            <mxPoint x="270" y="301" as="targetPoint" />
          </mxGeometry>
        </mxCell>
        <mxCell id="4luCwFVKugMRVaSGN3f6-68" value="" style="group" parent="1" vertex="1" connectable="0">
          <mxGeometry x="610" y="270" width="120" height="60" as="geometry" />
        </mxCell>
        <mxCell id="4luCwFVKugMRVaSGN3f6-67" value="" style="rounded=0;whiteSpace=wrap;html=1;" parent="4luCwFVKugMRVaSGN3f6-68" vertex="1">
          <mxGeometry width="120" height="60" as="geometry" />
        </mxCell>
        <mxCell id="4luCwFVKugMRVaSGN3f6-18" value="masuk sebagai user" style="text;html=1;align=center;verticalAlign=middle;whiteSpace=wrap;rounded=0;container=0;" parent="4luCwFVKugMRVaSGN3f6-68" vertex="1">
          <mxGeometry x="5" y="16" width="110" height="30" as="geometry" />
        </mxCell>
        <mxCell id="4luCwFVKugMRVaSGN3f6-84" style="edgeStyle=orthogonalEdgeStyle;rounded=0;orthogonalLoop=1;jettySize=auto;html=1;entryX=0;entryY=0.5;entryDx=0;entryDy=0;" parent="1" target="4luCwFVKugMRVaSGN3f6-83" edge="1">
          <mxGeometry relative="1" as="geometry">
            <mxPoint x="670" y="560" as="sourcePoint" />
            <Array as="points">
              <mxPoint x="670" y="660" />
            </Array>
          </mxGeometry>
        </mxCell>
        <mxCell id="4luCwFVKugMRVaSGN3f6-69" value="" style="rhombus;whiteSpace=wrap;html=1;" parent="1" vertex="1">
          <mxGeometry x="630" y="420" width="80" height="80" as="geometry" />
        </mxCell>
        <mxCell id="4luCwFVKugMRVaSGN3f6-74" style="edgeStyle=orthogonalEdgeStyle;rounded=0;orthogonalLoop=1;jettySize=auto;html=1;entryX=1;entryY=0.5;entryDx=0;entryDy=0;" parent="1" target="4luCwFVKugMRVaSGN3f6-71" edge="1">
          <mxGeometry relative="1" as="geometry">
            <mxPoint x="630" y="460" as="sourcePoint" />
          </mxGeometry>
        </mxCell>
        <mxCell id="4luCwFVKugMRVaSGN3f6-70" value="LOGIN" style="text;html=1;align=center;verticalAlign=middle;whiteSpace=wrap;rounded=0;" parent="1" vertex="1">
          <mxGeometry x="640" y="445" width="60" height="30" as="geometry" />
        </mxCell>
        <mxCell id="4luCwFVKugMRVaSGN3f6-85" style="edgeStyle=orthogonalEdgeStyle;rounded=0;orthogonalLoop=1;jettySize=auto;html=1;exitX=0.5;exitY=0;exitDx=0;exitDy=0;" parent="1" source="4luCwFVKugMRVaSGN3f6-71" edge="1">
          <mxGeometry relative="1" as="geometry">
            <mxPoint x="670" y="370" as="targetPoint" />
            <Array as="points">
              <mxPoint x="480" y="370" />
            </Array>
          </mxGeometry>
        </mxCell>
        <mxCell id="4luCwFVKugMRVaSGN3f6-71" value="" style="rhombus;whiteSpace=wrap;html=1;" parent="1" vertex="1">
          <mxGeometry x="440" y="420" width="80" height="80" as="geometry" />
        </mxCell>
        <mxCell id="4luCwFVKugMRVaSGN3f6-72" value="REGISTER" style="text;html=1;align=center;verticalAlign=middle;whiteSpace=wrap;rounded=0;" parent="1" vertex="1">
          <mxGeometry x="450" y="445" width="60" height="30" as="geometry" />
        </mxCell>
        <mxCell id="4luCwFVKugMRVaSGN3f6-73" style="edgeStyle=orthogonalEdgeStyle;rounded=0;orthogonalLoop=1;jettySize=auto;html=1;entryX=0.5;entryY=0;entryDx=0;entryDy=0;" parent="1" target="4luCwFVKugMRVaSGN3f6-69" edge="1">
          <mxGeometry relative="1" as="geometry">
            <mxPoint x="670" y="330" as="sourcePoint" />
          </mxGeometry>
        </mxCell>
        <mxCell id="4luCwFVKugMRVaSGN3f6-79" value="no" style="text;html=1;align=center;verticalAlign=middle;resizable=0;points=[];autosize=1;strokeColor=none;fillColor=none;" parent="1" vertex="1">
          <mxGeometry x="550" y="428" width="40" height="30" as="geometry" />
        </mxCell>
        <mxCell id="v6_AkeaktF8pt_beV7Yw-3" style="edgeStyle=orthogonalEdgeStyle;rounded=0;orthogonalLoop=1;jettySize=auto;html=1;entryX=1;entryY=0.75;entryDx=0;entryDy=0;exitX=0.538;exitY=0.99;exitDx=0;exitDy=0;exitPerimeter=0;" edge="1" parent="1" source="4luCwFVKugMRVaSGN3f6-80" target="4luCwFVKugMRVaSGN3f6-83">
          <mxGeometry relative="1" as="geometry" />
        </mxCell>
        <mxCell id="4luCwFVKugMRVaSGN3f6-80" value="melihat produk" style="rounded=1;whiteSpace=wrap;html=1;" parent="1" vertex="1">
          <mxGeometry x="740" y="535" width="90" height="40" as="geometry" />
        </mxCell>
        <mxCell id="4luCwFVKugMRVaSGN3f6-81" style="edgeStyle=orthogonalEdgeStyle;rounded=0;orthogonalLoop=1;jettySize=auto;html=1;entryX=0;entryY=0.625;entryDx=0;entryDy=0;entryPerimeter=0;exitX=0.5;exitY=1;exitDx=0;exitDy=0;" parent="1" source="4luCwFVKugMRVaSGN3f6-69" target="4luCwFVKugMRVaSGN3f6-80" edge="1">
          <mxGeometry relative="1" as="geometry" />
        </mxCell>
        <mxCell id="v6_AkeaktF8pt_beV7Yw-2" style="edgeStyle=orthogonalEdgeStyle;rounded=0;orthogonalLoop=1;jettySize=auto;html=1;entryX=1;entryY=0.5;entryDx=0;entryDy=0;" edge="1" parent="1" source="4luCwFVKugMRVaSGN3f6-83" target="v6_AkeaktF8pt_beV7Yw-1">
          <mxGeometry relative="1" as="geometry">
            <mxPoint x="420" y="660" as="targetPoint" />
          </mxGeometry>
        </mxCell>
        <mxCell id="4luCwFVKugMRVaSGN3f6-83" value="memesan produk" style="rounded=1;whiteSpace=wrap;html=1;" parent="1" vertex="1">
          <mxGeometry x="630" y="640" width="90" height="40" as="geometry" />
        </mxCell>
        <mxCell id="4luCwFVKugMRVaSGN3f6-87" value="YES" style="text;html=1;align=center;verticalAlign=middle;resizable=0;points=[];autosize=1;strokeColor=none;fillColor=none;" parent="1" vertex="1">
          <mxGeometry x="670" y="505" width="50" height="30" as="geometry" />
        </mxCell>
        <mxCell id="KPBnRNqBMspxrsRg6wUU-2" value="" style="group" parent="1" vertex="1" connectable="0">
          <mxGeometry x="150" y="275" width="90" height="50" as="geometry" />
        </mxCell>
        <mxCell id="KPBnRNqBMspxrsRg6wUU-1" value="" style="rounded=1;whiteSpace=wrap;html=1;" parent="KPBnRNqBMspxrsRg6wUU-2" vertex="1">
          <mxGeometry width="90" height="50" as="geometry" />
        </mxCell>
        <mxCell id="4luCwFVKugMRVaSGN3f6-9" value="masuk&lt;br&gt;&lt;div&gt;sebagai&lt;/div&gt;&lt;div&gt;admin&lt;/div&gt;" style="text;html=1;align=center;verticalAlign=middle;whiteSpace=wrap;rounded=0;container=0;" parent="KPBnRNqBMspxrsRg6wUU-2" vertex="1">
          <mxGeometry x="15" y="11" width="60" height="30" as="geometry" />
        </mxCell>
        <mxCell id="v6_AkeaktF8pt_beV7Yw-38" style="edgeStyle=orthogonalEdgeStyle;rounded=0;orthogonalLoop=1;jettySize=auto;html=1;entryX=0.5;entryY=0;entryDx=0;entryDy=0;" edge="1" parent="1" source="v6_AkeaktF8pt_beV7Yw-1" target="v6_AkeaktF8pt_beV7Yw-19">
          <mxGeometry relative="1" as="geometry" />
        </mxCell>
        <mxCell id="v6_AkeaktF8pt_beV7Yw-1" value="transaksi" style="rhombus;whiteSpace=wrap;html=1;" vertex="1" parent="1">
          <mxGeometry x="452.5" y="565" width="80" height="80" as="geometry" />
        </mxCell>
        <mxCell id="v6_AkeaktF8pt_beV7Yw-21" style="edgeStyle=orthogonalEdgeStyle;rounded=0;orthogonalLoop=1;jettySize=auto;html=1;entryX=0;entryY=0.5;entryDx=0;entryDy=0;exitX=0.5;exitY=1;exitDx=0;exitDy=0;" edge="1" parent="1" source="v6_AkeaktF8pt_beV7Yw-4" target="4luCwFVKugMRVaSGN3f6-59">
          <mxGeometry relative="1" as="geometry" />
        </mxCell>
        <mxCell id="v6_AkeaktF8pt_beV7Yw-4" value="edit&lt;div&gt;hapus&lt;/div&gt;&lt;div&gt;tambah&lt;/div&gt;" style="whiteSpace=wrap;html=1;aspect=fixed;" vertex="1" parent="1">
          <mxGeometry x="160" y="670" width="80" height="80" as="geometry" />
        </mxCell>
        <mxCell id="v6_AkeaktF8pt_beV7Yw-5" style="edgeStyle=orthogonalEdgeStyle;rounded=0;orthogonalLoop=1;jettySize=auto;html=1;entryX=0;entryY=0.5;entryDx=0;entryDy=0;exitX=0.419;exitY=0.97;exitDx=0;exitDy=0;exitPerimeter=0;" edge="1" parent="1" source="4luCwFVKugMRVaSGN3f6-34" target="v6_AkeaktF8pt_beV7Yw-4">
          <mxGeometry relative="1" as="geometry" />
        </mxCell>
        <mxCell id="v6_AkeaktF8pt_beV7Yw-6" style="edgeStyle=orthogonalEdgeStyle;rounded=0;orthogonalLoop=1;jettySize=auto;html=1;entryX=0.493;entryY=-0.039;entryDx=0;entryDy=0;entryPerimeter=0;" edge="1" parent="1" source="4luCwFVKugMRVaSGN3f6-41" target="v6_AkeaktF8pt_beV7Yw-4">
          <mxGeometry relative="1" as="geometry" />
        </mxCell>
        <mxCell id="v6_AkeaktF8pt_beV7Yw-7" style="edgeStyle=orthogonalEdgeStyle;rounded=0;orthogonalLoop=1;jettySize=auto;html=1;entryX=1;entryY=0.5;entryDx=0;entryDy=0;exitX=0.455;exitY=1.016;exitDx=0;exitDy=0;exitPerimeter=0;" edge="1" parent="1" source="4luCwFVKugMRVaSGN3f6-44" target="v6_AkeaktF8pt_beV7Yw-4">
          <mxGeometry relative="1" as="geometry" />
        </mxCell>
        <mxCell id="v6_AkeaktF8pt_beV7Yw-47" style="edgeStyle=orthogonalEdgeStyle;rounded=0;orthogonalLoop=1;jettySize=auto;html=1;" edge="1" parent="1" source="v6_AkeaktF8pt_beV7Yw-14" target="v6_AkeaktF8pt_beV7Yw-46">
          <mxGeometry relative="1" as="geometry" />
        </mxCell>
        <mxCell id="v6_AkeaktF8pt_beV7Yw-14" value="cash" style="rounded=1;whiteSpace=wrap;html=1;" vertex="1" parent="1">
          <mxGeometry x="320" y="760" width="83" height="40" as="geometry" />
        </mxCell>
        <mxCell id="v6_AkeaktF8pt_beV7Yw-53" style="edgeStyle=orthogonalEdgeStyle;rounded=0;orthogonalLoop=1;jettySize=auto;html=1;entryX=0.5;entryY=0;entryDx=0;entryDy=0;" edge="1" parent="1" source="v6_AkeaktF8pt_beV7Yw-16" target="v6_AkeaktF8pt_beV7Yw-23">
          <mxGeometry relative="1" as="geometry" />
        </mxCell>
        <mxCell id="v6_AkeaktF8pt_beV7Yw-16" value="e-wallet" style="rounded=1;whiteSpace=wrap;html=1;" vertex="1" parent="1">
          <mxGeometry x="683.5" y="715" width="83" height="40" as="geometry" />
        </mxCell>
        <mxCell id="v6_AkeaktF8pt_beV7Yw-39" style="edgeStyle=orthogonalEdgeStyle;rounded=0;orthogonalLoop=1;jettySize=auto;html=1;entryX=0.5;entryY=0;entryDx=0;entryDy=0;" edge="1" parent="1" source="v6_AkeaktF8pt_beV7Yw-19" target="v6_AkeaktF8pt_beV7Yw-14">
          <mxGeometry relative="1" as="geometry" />
        </mxCell>
        <mxCell id="v6_AkeaktF8pt_beV7Yw-40" style="edgeStyle=orthogonalEdgeStyle;rounded=0;orthogonalLoop=1;jettySize=auto;html=1;entryX=0;entryY=0.5;entryDx=0;entryDy=0;" edge="1" parent="1" source="v6_AkeaktF8pt_beV7Yw-19" target="v6_AkeaktF8pt_beV7Yw-16">
          <mxGeometry relative="1" as="geometry" />
        </mxCell>
        <mxCell id="v6_AkeaktF8pt_beV7Yw-19" value="metode&lt;div&gt;pembayaran&lt;/div&gt;&lt;div&gt;&lt;br&gt;&lt;/div&gt;" style="rhombus;whiteSpace=wrap;html=1;" vertex="1" parent="1">
          <mxGeometry x="447.5" y="690" width="90" height="90" as="geometry" />
        </mxCell>
        <mxCell id="v6_AkeaktF8pt_beV7Yw-32" style="edgeStyle=orthogonalEdgeStyle;rounded=0;orthogonalLoop=1;jettySize=auto;html=1;entryX=1;entryY=0.5;entryDx=0;entryDy=0;exitX=1;exitY=0.5;exitDx=0;exitDy=0;" edge="1" parent="1" source="v6_AkeaktF8pt_beV7Yw-23" target="v6_AkeaktF8pt_beV7Yw-24">
          <mxGeometry relative="1" as="geometry" />
        </mxCell>
        <mxCell id="v6_AkeaktF8pt_beV7Yw-23" value="Dana" style="rounded=1;whiteSpace=wrap;html=1;arcSize=14;" vertex="1" parent="1">
          <mxGeometry x="687.5" y="840" width="75" height="30" as="geometry" />
        </mxCell>
        <mxCell id="v6_AkeaktF8pt_beV7Yw-24" value="Go-pay" style="rounded=1;whiteSpace=wrap;html=1;" vertex="1" parent="1">
          <mxGeometry x="687.5" y="910" width="75" height="30" as="geometry" />
        </mxCell>
        <mxCell id="v6_AkeaktF8pt_beV7Yw-37" style="edgeStyle=orthogonalEdgeStyle;rounded=0;orthogonalLoop=1;jettySize=auto;html=1;entryX=0.555;entryY=0;entryDx=0;entryDy=0;entryPerimeter=0;exitX=0.504;exitY=0.844;exitDx=0;exitDy=0;exitPerimeter=0;" edge="1" parent="1" source="4luCwFVKugMRVaSGN3f6-59" target="v6_AkeaktF8pt_beV7Yw-35">
          <mxGeometry relative="1" as="geometry" />
        </mxCell>
        <mxCell id="v6_AkeaktF8pt_beV7Yw-44" value="" style="endArrow=none;html=1;rounded=0;entryX=0;entryY=0.5;entryDx=0;entryDy=0;exitX=0;exitY=0.5;exitDx=0;exitDy=0;" edge="1" parent="1" source="v6_AkeaktF8pt_beV7Yw-24" target="v6_AkeaktF8pt_beV7Yw-23">
          <mxGeometry width="50" height="50" relative="1" as="geometry">
            <mxPoint x="530" y="910" as="sourcePoint" />
            <mxPoint x="580" y="860" as="targetPoint" />
            <Array as="points">
              <mxPoint x="670" y="890" />
            </Array>
          </mxGeometry>
        </mxCell>
        <mxCell id="v6_AkeaktF8pt_beV7Yw-54" style="edgeStyle=orthogonalEdgeStyle;rounded=0;orthogonalLoop=1;jettySize=auto;html=1;entryX=1;entryY=0.5;entryDx=0;entryDy=0;exitX=0.434;exitY=1.007;exitDx=0;exitDy=0;exitPerimeter=0;" edge="1" parent="1" source="v6_AkeaktF8pt_beV7Yw-46" target="4luCwFVKugMRVaSGN3f6-59">
          <mxGeometry relative="1" as="geometry" />
        </mxCell>
        <mxCell id="v6_AkeaktF8pt_beV7Yw-46" value="data&amp;nbsp;&lt;div&gt;transaksi&lt;/div&gt;" style="shape=parallelogram;perimeter=parallelogramPerimeter;whiteSpace=wrap;html=1;fixedSize=1;" vertex="1" parent="1">
          <mxGeometry x="520" y="800" width="90" height="40" as="geometry" />
        </mxCell>
        <mxCell id="v6_AkeaktF8pt_beV7Yw-49" value="" style="group" vertex="1" connectable="0" parent="1">
          <mxGeometry x="370" y="980" width="91" height="40" as="geometry" />
        </mxCell>
        <mxCell id="v6_AkeaktF8pt_beV7Yw-35" value="" style="shape=parallelogram;perimeter=parallelogramPerimeter;whiteSpace=wrap;html=1;fixedSize=1;" vertex="1" parent="v6_AkeaktF8pt_beV7Yw-49">
          <mxGeometry width="91" height="40" as="geometry" />
        </mxCell>
        <mxCell id="4luCwFVKugMRVaSGN3f6-53" value="LOGOUT" style="text;html=1;align=center;verticalAlign=middle;whiteSpace=wrap;rounded=0;" parent="v6_AkeaktF8pt_beV7Yw-49" vertex="1">
          <mxGeometry x="15.5" y="5" width="60" height="30" as="geometry" />
        </mxCell>
        <mxCell id="v6_AkeaktF8pt_beV7Yw-52" value="" style="endArrow=classic;html=1;rounded=0;entryX=1;entryY=0.5;entryDx=0;entryDy=0;" edge="1" parent="1" target="v6_AkeaktF8pt_beV7Yw-46">
          <mxGeometry width="50" height="50" relative="1" as="geometry">
            <mxPoint x="670" y="890" as="sourcePoint" />
            <mxPoint x="580" y="890" as="targetPoint" />
          </mxGeometry>
        </mxCell>
      </root>
    </mxGraphModel>
  </diagram>
</mxfile>
